<svg width="56" height="69" viewBox="0 0 56 69" fill="none" xmlns="http://www.w3.org/2000/svg">
<path d="M46.3673 38.8362C44.4968 29.4224 53.4321 23.9013 53.4321 23.9013C53.4321 23.9013 49.9508 18.8647 44.1 17.5689C38.2521 16.2704 35.3252 17.8928 32.4041 19.1097C29.4802 20.3295 28.0211 20.3295 28.0211 20.3295C23.8016 20.3295 20.717 15.8618 12.6777 17.8958C7.13915 19.2935 1.30867 25.6872 0.255239 33.3181C-0.798195 40.9519 1.47507 50.6925 5.85804 58.2418C10.241 65.7968 14.7058 68.6361 17.8748 68.7178C21.0439 68.7965 24.2072 66.4475 28.0211 65.8755C31.8381 65.3094 34.1871 67.2588 37.931 68.3122C41.6603 69.3628 42.9677 68.3881 47.2631 64.7346C51.5702 61.081 55.4689 50.6022 55.4689 50.6022C55.4689 50.6022 48.2378 48.2558 46.3673 38.8362Z" fill="black"/>
<path d="M38.0857 11.4786C42.2294 7.25625 40.8258 0.719604 40.8258 0.719604C40.8258 0.719604 35.0071 1.74098 31.1084 5.79711C27.2128 9.85622 27.8576 16.2673 27.8576 16.2673C27.8576 16.2673 33.9419 15.6983 38.0857 11.4786Z" fill="black"/>
</svg>
