<svg width="211" height="71" viewBox="0 0 211 71" fill="none" xmlns="http://www.w3.org/2000/svg">
<path d="M90.2977 37.5524C90.2977 47.5966 82.4804 54.998 72.8868 54.998C63.2932 54.998 55.476 47.5966 55.476 37.5524C55.476 27.4374 63.2932 20.1068 72.8868 20.1068C82.4804 20.1068 90.2977 27.4374 90.2977 37.5524ZM82.676 37.5524C82.676 31.2758 78.1453 26.9812 72.8868 26.9812C67.6283 26.9812 63.0976 31.2758 63.0976 37.5524C63.0976 43.7661 67.6283 48.1236 72.8868 48.1236C78.1453 48.1236 82.676 43.7582 82.676 37.5524Z" fill="#EA4335"/>
<path d="M127.858 37.5524C127.858 47.5966 120.041 54.998 110.447 54.998C100.854 54.998 93.0363 47.5966 93.0363 37.5524C93.0363 27.4453 100.854 20.1068 110.447 20.1068C120.041 20.1068 127.858 27.4374 127.858 37.5524ZM120.236 37.5524C120.236 31.2758 115.706 26.9812 110.447 26.9812C105.189 26.9812 100.658 31.2758 100.658 37.5524C100.658 43.7661 105.189 48.1236 110.447 48.1236C115.706 48.1236 120.236 43.7582 120.236 37.5524Z" fill="#FBBC05"/>
<path d="M163.854 21.1608V52.481C163.854 65.3646 156.294 70.6266 147.358 70.6266C138.946 70.6266 133.883 64.9713 131.974 60.3465L138.61 57.57C139.791 60.4094 142.687 63.7601 147.35 63.7601C153.071 63.7601 156.615 60.2127 156.615 53.535V51.0259H156.349C154.643 53.1417 151.357 54.9901 147.21 54.9901C138.531 54.9901 130.581 47.3921 130.581 37.6153C130.581 27.7678 138.531 20.1068 147.21 20.1068C151.349 20.1068 154.636 21.9552 156.349 24.0081H156.615V21.1686H163.854V21.1608ZM157.155 37.6153C157.155 31.4724 153.078 26.9812 147.89 26.9812C142.632 26.9812 138.226 31.4724 138.226 37.6153C138.226 43.6953 142.632 48.1235 147.89 48.1235C153.078 48.1235 157.155 43.6953 157.155 37.6153Z" fill="#4285F4"/>
<path d="M175.787 2.80261V53.928H168.353V2.80261H175.787Z" fill="#34A853"/>
<path d="M204.756 43.294L210.671 47.2581C208.762 50.0976 204.161 54.9899 196.211 54.9899C186.351 54.9899 178.987 47.3289 178.987 37.5443C178.987 27.1698 186.413 20.0988 195.358 20.0988C204.364 20.0988 208.77 27.3035 210.21 31.1969L211 33.179L187.799 42.8378C189.575 46.3379 192.337 48.1233 196.211 48.1233C200.092 48.1233 202.784 46.2042 204.756 43.294ZM186.546 37.0173L202.056 30.5441C201.203 28.3653 198.636 26.8473 195.616 26.8473C191.742 26.8473 186.351 30.2845 186.546 37.0173V37.0173Z" fill="#EA4335"/>
<path d="M27.3368 33.0139V25.6125H52.1502C52.3928 26.9024 52.518 28.4283 52.518 30.0801C52.518 35.6331 51.0077 42.4996 46.1405 47.3919C41.4063 52.3472 35.3575 54.99 27.3446 54.99C12.4925 54.99 0.00366211 42.83 0.00366211 27.9014C0.00366211 12.9727 12.4925 0.812744 27.3446 0.812744C35.561 0.812744 41.4141 4.05331 45.8119 8.27706L40.616 13.4997C37.4625 10.5266 33.19 8.21413 27.3368 8.21413C16.4912 8.21413 8.00875 16.9998 8.00875 27.9014C8.00875 38.8029 16.4912 47.5886 27.3368 47.5886C34.3715 47.5886 38.378 44.7492 40.9446 42.1693C43.0261 40.0771 44.3955 37.0882 44.9354 33.006L27.3368 33.0139Z" fill="#4285F4"/>
</svg>
